<svg width="48" height="47" viewBox="0 0 48 47" fill="none" xmlns="http://www.w3.org/2000/svg">
<path d="M0 5C0 2.23858 2.23858 0 5 0H23C36.8071 0 48 11.1929 48 25V35C48 41.6274 42.6274 47 36 47H10C4.47715 47 0 42.5228 0 37V5Z" fill="#2B5BD9"/>
<path d="M10.56 33.66C10.2267 33.66 9.95333 33.5667 9.74 33.38C9.54 33.2067 9.44 33.0133 9.44 32.8C9.44 32.56 9.47333 32.38 9.54 32.26C9.62 32.1267 9.78667 32.0333 10.04 31.98C10.6667 31.8333 11.3133 31.66 11.98 31.46C12.66 31.2467 13.2933 31.0267 13.88 30.8C14.4667 30.56 14.94 30.3267 15.3 30.1C15.6733 29.8733 15.86 29.6733 15.86 29.5C15.86 29.34 15.7133 29.1867 15.42 29.04C15.1267 28.88 14.7533 28.7067 14.3 28.52C13.8467 28.3333 13.36 28.1267 12.84 27.9C12.32 27.6733 11.8333 27.4133 11.38 27.12C10.9267 26.8267 10.5533 26.4933 10.26 26.12C9.96667 25.7333 9.82 25.2933 9.82 24.8C9.82 24.0267 10.0067 23.3067 10.38 22.64C10.7667 21.96 11.2667 21.3333 11.88 20.76C12.4933 20.1867 13.1667 19.66 13.9 19.18C14.6467 18.6867 15.38 18.2533 16.1 17.88C16.8333 17.4933 17.4867 17.1533 18.06 16.86C18.2467 16.7533 18.4267 16.68 18.6 16.64C18.7733 16.6 18.9267 16.58 19.06 16.58C19.4467 16.58 19.7267 16.6667 19.9 16.84C20.0733 17.0133 20.16 17.2133 20.16 17.44C20.16 17.6267 20.06 17.8467 19.86 18.1C19.66 18.34 19.3733 18.5533 19 18.74C18.6267 18.9267 18.18 19.02 17.66 19.02H17.5C17.0467 19.26 16.5533 19.5467 16.02 19.88C15.4867 20.2133 14.96 20.58 14.44 20.98C13.92 21.38 13.44 21.7933 13 22.22C12.5733 22.6333 12.2267 23.0333 11.96 23.42C11.7067 23.8067 11.58 24.16 11.58 24.48C11.58 24.8667 11.7267 25.2133 12.02 25.52C12.3133 25.8267 12.6867 26.1 13.14 26.34C13.6067 26.58 14.0933 26.8133 14.6 27.04C15.12 27.2667 15.6067 27.5 16.06 27.74C16.5267 27.9667 16.9067 28.22 17.2 28.5C17.4933 28.7667 17.64 29.08 17.64 29.44C17.64 29.8533 17.4933 30.2467 17.2 30.62C16.92 30.9933 16.5467 31.34 16.08 31.66C15.6133 31.9667 15.1 32.2467 14.54 32.5C13.9933 32.74 13.4533 32.9467 12.92 33.12C12.3867 33.2933 11.9067 33.4267 11.48 33.52C11.0667 33.6133 10.76 33.66 10.56 33.66ZM30.2545 35.06C29.9612 35.06 29.7012 34.9133 29.4745 34.62C29.2612 34.3267 29.1545 33.8667 29.1545 33.24C29.1545 32.88 29.4345 31.84 29.9945 30.12C30.5679 28.3867 31.4345 26.0133 32.5945 23C32.0879 23.7467 31.5479 24.4667 30.9745 25.16C30.4012 25.84 29.8145 26.4 29.2145 26.84C28.6279 27.28 28.0545 27.5 27.4945 27.5C26.6012 27.5 25.9079 27.2267 25.4145 26.68C24.9345 26.12 24.6945 25.26 24.6945 24.1C24.6945 22.74 24.7879 21.54 24.9745 20.5C25.1745 19.46 25.3945 18.6467 25.6345 18.06C25.8879 17.4733 26.0879 17.18 26.2345 17.18C26.4345 17.18 26.6612 17.28 26.9145 17.48C27.1812 17.6667 27.3145 17.9533 27.3145 18.34C27.3145 18.7133 27.2279 19.2467 27.0545 19.94C26.8945 20.62 26.7279 21.4 26.5545 22.28C26.3812 23.16 26.2945 24.0733 26.2945 25.02C26.2945 25.3 26.3545 25.5133 26.4745 25.66C26.5945 25.7933 26.7479 25.86 26.9345 25.86C27.4279 25.86 27.9479 25.6867 28.4945 25.34C29.0412 24.9933 29.5812 24.54 30.1145 23.98C30.6479 23.4067 31.1612 22.78 31.6545 22.1C32.1479 21.42 32.5945 20.7467 32.9945 20.08C33.4079 19.4 33.7545 18.78 34.0345 18.22C34.3945 17.4867 34.6679 17.0067 34.8545 16.78C35.0545 16.54 35.2612 16.42 35.4745 16.42C35.7145 16.42 35.9345 16.54 36.1345 16.78C36.3345 17.0067 36.4345 17.2133 36.4345 17.4C36.4345 17.5867 36.2945 17.98 36.0145 18.58C35.7345 19.18 35.3745 20.02 34.9345 21.1C34.4945 22.1667 34.0412 23.52 33.5745 25.16C33.0012 27.2 32.5279 28.8667 32.1545 30.16C31.7945 31.4533 31.4945 32.4533 31.2545 33.16C31.0279 33.88 30.8345 34.3733 30.6745 34.64C30.5279 34.92 30.3879 35.06 30.2545 35.06Z" fill="black"/>
</svg>
